<?xml version="1.0" encoding="utf-8"?>
<!-- Generator: Adobe Illustrator 19.0.0, SVG Export Plug-In . SVG Version: 6.00 Build 0)  -->
<svg version="1.1" id="Layer_1" xmlns="http://www.w3.org/2000/svg" xmlns:xlink="http://www.w3.org/1999/xlink" x="0px" y="0px"
	 viewBox="0 0 473 217" style="enable-background:new 0 0 473 217;" xml:space="preserve">
<style type="text/css">
	.st0{fill:#F4B551;}
</style>
<g id="XMLID_79_">
	<g id="XMLID_417_">
		<path id="XMLID_428_" class="st0" d="M264.8,100.9h-1.2l11.9-32.2h1.8l11.9,32.2H288l-4.3-11.5h-14.7L264.8,100.9z M276.3,69.8
			l-6.8,18.5h13.8l-6.8-18.5H276.3z"/>
		<path id="XMLID_426_" class="st0" d="M293.1,77.3c0-5.9,5.6-9,11.3-9c4.1,0,8.1,1.6,10,4.7l-1,0.7c-1.6-3-5.3-4.2-9-4.2
			c-5.1,0-10.1,2.6-10.1,7.9v15c0,5.4,5.1,8.1,10.1,8.1c5.1,0,10.2-2.7,10.2-8.1v-6.1h-9.9V85h11v7.2c0,6.1-5.7,9.1-11.3,9.1
			c-5.6,0-11.3-3-11.3-9.1V77.3z"/>
		<path id="XMLID_424_" class="st0" d="M323.8,84.3h16.7v1.2h-16.7v14.3h18v1.1h-19.2V68.7h19.2v1.1h-18V84.3z"/>
		<path id="XMLID_422_" class="st0" d="M369.3,99.8V68.7h1.1v32.2h-2l-18.9-30.8l0,30.8h-1.2V68.7h1.8L369.3,99.8z"/>
		<path id="XMLID_420_" class="st0" d="M378.2,77.3c0-5.9,5.7-9,11.4-9c4.1,0,8.1,1.5,10,4.6l-1,0.7c-1.7-2.8-5.5-4.3-9.1-4.3
			c-5,0-10.1,2.6-10.1,7.9v15.1c0,5.3,5.1,7.9,10.1,7.9c3.6,0,7.4-1.3,9.1-4.1l1,0.5c-1.9,3.1-6.1,4.7-10.1,4.7
			c-5.6,0-11.3-3-11.3-9V77.3z"/>
		<path id="XMLID_418_" class="st0" d="M414.2,100.9h-1.1V88.1l-11-19.4h1.4l10.2,18.2l10.6-18.2h1.4l-11.4,19.4V100.9z"/>
	</g>
	<path id="XMLID_415_" class="st0" d="M117,166.4h0.6L164,42.2c4.8-12.7-4.7-26.3-18.2-26.3h0V4.7h67v11.2h0
		c-15.2,0-28.8,9.4-34.1,23.7l-64.1,171.2h-11.1L44.1,42.1c-5.5-15.7-20.4-26.2-37-26.2h0V4.7h86.3v11.2h0
		c-14.3,0-24.3,14.1-19.5,27.6L117,166.4z"/>
	<rect id="XMLID_414_" x="230.7" y="4.7" class="st0" width="8" height="207.9"/>
	<path id="XMLID_407_" class="st0" d="M278.1,40.6h0.1l10-26.8c1-2.7-1-5.7-3.9-5.7h0V5.7h14.4v2.4h-2.5c-1.7,0-3.3,1.1-3.9,2.7
		l-14.7,39.3h-2.4l-13.8-39.2c-0.6-1.7-2.2-2.8-4-2.8h-3V5.7H273v2.4h-0.4c-2.9,0-4.9,2.9-4,5.6L278.1,40.6z"/>
	<path id="XMLID_282_" class="st0" d="M311.7,12.3V43c0,2.3,1.9,4.2,4.2,4.2h1.9v2.4h-18v-2.4h1.9c2.3,0,4.2-1.9,4.2-4.2V12.3
		c0-2.3-1.9-4.2-4.2-4.2h-1.9V5.7h18v2.4h-1.9C313.6,8.1,311.7,10,311.7,12.3z"/>
	<path id="XMLID_280_" class="st0" d="M323.1,36.5h2.1c0.2,2.3,0.7,4.2,1.3,5.7c0.7,1.5,1.5,2.8,2.5,3.7c1,0.9,2.1,1.5,3.4,1.9
		c1.3,0.4,2.6,0.6,4,0.6c1.7,0,3.1-0.2,4.3-0.6s2.2-1,3-1.8s1.3-1.7,1.7-2.7s0.5-2.2,0.5-3.5c0-1.6-0.3-2.9-0.8-3.9
		c-0.5-1-1.3-1.9-2.2-2.6c-0.9-0.7-2.1-1.3-3.4-1.9c-1.3-0.5-2.8-1.1-4.3-1.6s-3.1-1.2-4.5-1.8c-1.4-0.6-2.7-1.4-3.8-2.3
		s-2-2.1-2.6-3.4c-0.6-1.3-1-3-1-5c0-1.9,0.3-3.6,0.9-5.1c0.6-1.6,1.5-2.9,2.7-4c1.2-1.1,2.7-2,4.4-2.6c1.8-0.6,3.8-0.9,6.2-0.9
		c0.9,0,1.9,0,2.9,0.1s2,0.2,2.9,0.4c1,0.2,1.9,0.4,2.9,0.7c0.9,0.3,1.8,0.5,2.7,0.8l0.4,11h-2.1c-0.2-2.2-0.6-4-1.2-5.3
		c-0.6-1.4-1.4-2.4-2.3-3.2c-0.9-0.8-1.9-1.3-3-1.6c-1.1-0.3-2.2-0.4-3.4-0.4c-1.5,0-2.9,0.2-4,0.6c-1.1,0.4-2.1,0.9-2.8,1.6
		s-1.3,1.5-1.7,2.5s-0.6,2.1-0.6,3.4c0,1.5,0.3,2.7,0.8,3.7c0.5,1,1.3,1.8,2.2,2.6c1,0.7,2.1,1.4,3.4,1.9c1.3,0.6,2.8,1.1,4.4,1.7
		c1.5,0.6,2.9,1.2,4.3,1.8c1.4,0.6,2.7,1.4,3.8,2.4c1.1,1,2,2.1,2.7,3.5c0.7,1.4,1,3.1,1,5.2c0,2-0.3,3.8-1,5.4s-1.7,2.9-3,4
		c-1.3,1.1-2.9,1.9-4.8,2.5c-1.9,0.6-4,0.8-6.4,0.8c-1,0-2.1-0.1-3.2-0.2c-1.1-0.1-2.2-0.3-3.3-0.5c-1.1-0.2-2.1-0.4-3.2-0.7
		s-2-0.6-2.9-0.9L323.1,36.5z"/>
	<path id="XMLID_278_" class="st0" d="M368.4,12.3V43c0,2.3,1.9,4.2,4.2,4.2h1.9v2.4h-18v-2.4h1.9c2.3,0,4.2-1.9,4.2-4.2V12.3
		c0-2.3-1.9-4.2-4.2-4.2h-1.9V5.7h18v2.4h-1.9C370.3,8.1,368.4,10,368.4,12.3z"/>
	<path id="XMLID_275_" class="st0" d="M380.5,28.1c0-3.6,0.5-6.9,1.5-9.7c1-2.9,2.3-5.3,4.1-7.4s3.8-3.6,6.3-4.7
		c2.4-1.1,5.1-1.6,8-1.6c2.9,0,5.5,0.5,7.8,1.6c2.3,1.1,4.4,2.6,6,4.5c1.7,2,3,4.3,3.9,7.1c0.9,2.8,1.4,5.9,1.4,9.3
		c0,3.4-0.4,6.5-1.3,9.4c-0.9,2.9-2.2,5.4-3.9,7.4c-1.7,2.1-3.8,3.7-6.2,4.9s-5.2,1.8-8.3,1.8c-2.9,0-5.5-0.5-7.9-1.6
		s-4.4-2.6-6.1-4.5s-3-4.3-3.9-7.1C381,34.7,380.5,31.6,380.5,28.1z M387.1,27.9c0,2.8,0.1,5.2,0.4,7.3c0.3,2.1,0.7,3.9,1.2,5.4
		c0.5,1.5,1.2,2.7,2,3.7c0.8,1,1.6,1.8,2.6,2.4c0.9,0.6,2,1,3.1,1.2c1.1,0.2,2.3,0.3,3.5,0.3c1.2,0,2.4-0.1,3.5-0.3
		c1.1-0.2,2.2-0.6,3.1-1.2s1.8-1.4,2.6-2.4c0.8-1,1.5-2.3,2-3.8c0.6-1.5,1-3.4,1.3-5.5s0.5-4.6,0.5-7.5c0-2.8-0.1-5.2-0.4-7.3
		s-0.7-3.9-1.2-5.4s-1.2-2.8-2-3.8c-0.8-1-1.6-1.8-2.6-2.4c-0.9-0.6-2-1-3.1-1.2c-1.1-0.2-2.3-0.3-3.5-0.3c-1.2,0-2.4,0.1-3.5,0.4
		c-1.1,0.2-2.2,0.7-3.1,1.2c-1,0.6-1.8,1.4-2.6,2.4c-0.8,1-1.5,2.3-2,3.8c-0.6,1.5-1,3.4-1.3,5.5C387.2,22.6,387.1,25.1,387.1,27.9z
		"/>
	<path id="XMLID_273_" class="st0" d="M462.8,50.1h-2.4L434.2,9.5l-0.2,0V43c0,2.3,1.9,4.2,4.2,4.2h1.2v2.4h-14.2v-2.4h1.9
		c2.3,0,4.2-1.9,4.2-4.2V12.3c0-2.3-1.9-4.2-4.2-4.2h-1.9V5.7h13.5l21.1,32.7l0.2,0V12.3c0-2.3-1.9-4.2-4.2-4.2H454V5.7h14.8v2.4
		h-1.9c-2.3,0-4.2,1.9-4.2,4.2V50.1z"/>
</g>
</svg>
